<?xml version='1.0' encoding='utf-8'?>
<svg xmlns="http://www.w3.org/2000/svg" id="Layer_2" data-name="Layer 2" viewBox="0 0 1717.17 1423.01"><defs><style>.cls-1,.cls-3,.cls-4,.cls-5{fill:none;}.cls-1,.cls-2,.cls-4,.cls-5{stroke:#000;stroke-linecap:round;stroke-linejoin:round;}.cls-1,.cls-2{stroke-width:4.07px;}.cls-4{stroke-width:3px;}</style></defs><path class="cls-1" d="M481.42,1371.89c9-25.08,19.59-50.52,28.22-70.8,17.22-40.51,87.65-125,109.19-138.87,11.6-7.45,24.16-2.27,30.45-.12,35.55,12.15,59.35,35.78,82.47,49.81" transform="translate(-398.51 -754.23)"/><path class="cls-1" d="M549.27,1613.58q1.25,3,2.38,6.05c2.34,6.25,4.57,12.91,6.74,19.87,9.82,31.36,18.64,68.73,32.29,101.19,6.23,14.84,13.48,28.66,22.29,40.4,13.95,18.61,33.47,37.23,50.77,39.05a22.94,22.94,0,0,0,10.42-1.18c15.39-5.62,10.54-41.65,10.87-66,.19-14.63-.33-21-.57-23.2,0,0,0,0,0-.07-.07-.58-.11-.83-.11-.83a134.42,134.42,0,0,0,31.13,26.54c9.5,5.86,26.92,16.32,50.85,17.44,9.67.45,31.94,1.5,40.48-11.94a22.54,22.54,0,0,0,3.3-10.87" transform="translate(-398.51 -754.23)"/><path class="cls-1" d="M2036.58,2160.75l-157.53-32.54s-201.77-44.46-215.45-47.39,9.37,2-386.45-95.76c-136.18-33.64-203.38-41.78-274.56-85-151.38-91.93-192.49-150-192.49-150-9.62-17.37-13.93-14.29-40.64-41.84-52.29-53.9-93.94-85.23-139-115.48-6.79-4.56-13.66-9.09-20.65-13.67-30.23-19.81-57.79-38.24-82.11-55.44-15.55-11-29.78-21.49-42.53-31.53q-10.2-8-19.1-15.64l-2.29-2a53.55,53.55,0,0,0,13.51-.53c28.9-4.9,57.61-35.19,54.35-64.9-.53-4.8-2.27-13-9.08-22.54l2.83,1.23c11,4.81,23,10.62,36.15,17.59l.75.4q9.68,5.15,20.16,11.14,14.55,8.34,27.74,15.66,6.24,3.46,12.2,6.73h0q13.46,7.37,25.51,13.69c44.9,23.57,76.26,37.09,101.22,45.62,11.65,4,21.91,6.87,31.5,9.2l-1.41-63.18a77.32,77.32,0,0,0-.79-7.85h0a72.8,72.8,0,0,0-8-24c-6-10.94-14-18.75-26-27.34a214.1,214.1,0,0,0-22.55-14.05c-7.64-21.19-9.74-38.62-9.76-51.36l70.06-77.37c79.47,48.68,88.61,55.74,127.86,79.77,66,40.44,68.71,64.35,98.19,107,40.67,58.8,200.92,256.42,286.54,293.37,61.49,27.78,482.2,37.31,654.06,40.06" transform="translate(-398.51 -754.23)"/><path d="M2115.47,2177.23l-79.3-14.48a2,2,0,1,1,.73-4l.09,0,78.56,18.13a.17.17,0,0,1-.08.34Z" transform="translate(-398.51 -754.23)"/><path d="M1948.84,1760.74l72.87,3-72.94,1.06a2,2,0,0,1-.06-4.08h.13Z" transform="translate(-398.51 -754.23)"/><path class="cls-1" d="M451.5,1463.41c-36.42-34.48-63.34-53.89-32.24-87.57,19.82-21.47,20.78-13.48,62.15-3.92a307.34,307.34,0,0,1,44,15.83" transform="translate(-398.51 -754.23)"/><path class="cls-1" d="M780.61,1507.78c19.66,4.77,36.52,7.15,56.85,11.57,35.17,9.28,66.93,8.92,102.1,18.2" transform="translate(-398.51 -754.23)"/><path class="cls-1" d="M508.55,1543.83l.38.51c13.72,18.4,29.65,43.17,40.34,69.24,19,16.53,56.21,49.94,61.91,63.49a32.1,32.1,0,0,1,2.4,10c11.09.18,21.94-7.45,28.61-19.6,10.07-18.34,10.65-47-11.76-74.69h0c-6.79-4.56-13.66-9.09-20.65-13.67-30.23-19.81-57.79-38.24-82.11-55.44-.33-.23-.66-.46-1-.7-15.17-10.74-29.07-21-41.55-30.83l-.25-.2q-10.06-7.9-18.85-15.44l-.43-.37q-7.55-6.48-14.12-12.69c3.92,18.12,11.53,32.41,21.32,42.42" transform="translate(-398.51 -754.23)"/><path d="M535.68,1349.28c8.12,4.29,16.14,8.8,24,13.66,3.91,2.42,7.76,5,11.56,7.57s7.56,5.26,11.29,8a2,2,0,0,1-2.41,3.29l-.1-.08h0c-7-5.87-14.16-11.58-21.55-17s-15-10.47-22.81-15.35a.07.07,0,0,1,0-.09A.08.08,0,0,1,535.68,1349.28Z" transform="translate(-398.51 -754.23)"/><path class="cls-1" d="M726.6,1408c-10.94,15.21-68.1,35.7-104.22,31.23" transform="translate(-398.51 -754.23)"/><path class="cls-1" d="M737.34,1439h0c-24.79.08-59.89,4.72-89.4,13.92" transform="translate(-398.51 -754.23)"/><path class="cls-1" d="M558.41,1639.49c13.11,16.62,30.45,36.56,43.08,44a24.59,24.59,0,0,0,12.09,3.54" transform="translate(-398.51 -754.23)"/><path class="cls-1" d="M549.27,1613.58l0,0" transform="translate(-398.51 -754.23)"/><path class="cls-1" d="M642.19,1667.45h0c7.12,8.23,19.95,25.57,42.26,62.29v0" transform="translate(-398.51 -754.23)"/><path class="cls-1" d="M663.74,1820.14a37.74,37.74,0,0,0-8-21.21c-6.43-8.15-41.77-58.63-55.69-60.83-4.76-.77-7.65.57-9.36,2.61" transform="translate(-398.51 -754.23)"/><path d="M621.76,1235.14a327.43,327.43,0,0,0,8.1,38.53,109.06,109.06,0,0,0,6.78,18.26,44.5,44.5,0,0,0,5,8,24.08,24.08,0,0,0,3.2,3.26,22.24,22.24,0,0,0,3.79,2.51,2,2,0,0,1-1.94,3.58l-.08,0h0a25.6,25.6,0,0,1-7.77-7.12,47.42,47.42,0,0,1-5-8.92,112.47,112.47,0,0,1-6-19A330.16,330.16,0,0,1,621.76,1235.14Z" transform="translate(-398.51 -754.23)"/><path class="cls-1" d="M698,1360c11.71,16.38,19.64,31.76,28.77,48h0c.36.61.69,1.21,1.06,1.82a132.22,132.22,0,0,1,11.72,28.58s0,0,0,0c4.88,16.52,8.17,36.5,9.6,60.18h0" transform="translate(-398.51 -754.23)"/><path class="cls-1" d="M681.48,1353.79c5.24,1.79,10.76,3.85,16.47,6.22a250.75,250.75,0,0,1,23.9,11.33" transform="translate(-398.51 -754.23)"/><path class="cls-1" d="M424,1606.15c28.19-13.77,50.71-25,51.53-25.39a3.7,3.7,0,0,0,1.17-.86l30.13-33.28a3.67,3.67,0,0,0,.91-1.9" transform="translate(-398.51 -754.23)"/><path class="cls-1" d="M414.53,1597c8.56-18.88,21.34-48,21.58-48.7a3.6,3.6,0,0,1,.72-1.26l12.57-14.28,3.94-4.47.42-.48" transform="translate(-398.51 -754.23)"/><path class="cls-2" d="M1182.14,788a5,5,0,0,1-1.16,4.51l-12.69,14.06q-7.18,8-14.34,16a156.74,156.74,0,0,0-38.85-35.73l25.48-28.8a5,5,0,0,1,4-1.68A40.65,40.65,0,0,1,1182.14,788Z" transform="translate(-398.51 -754.23)"/><path class="cls-1" d="M1154,822.49c-124.9,139.22-246.24,281.45-371.8,420.12L712.09,1320l-24.28,26.81-6.33,7-71.31,78.75q-13.2-7.33-27.74-15.66-10.48-6-20.16-11.14v0q.6-1.32,1.2-2.61l84.14-95.61,84.13-95.59c126-143.2,256.66-282.52,383.35-425.15A156.74,156.74,0,0,1,1154,822.49Z" transform="translate(-398.51 -754.23)"/><path class="cls-1" d="M563.48,1403.11q-.6,1.29-1.2,2.61v0l-.75-.4Z" transform="translate(-398.51 -754.23)"/><path class="cls-3" d="M808.8,1400" transform="translate(-398.51 -754.23)"/><path class="cls-3" d="M778.41,1436.74" transform="translate(-398.51 -754.23)"/><path class="cls-1" d="M1110.46,792a155.17,155.17,0,0,1,20.74,15.89,156.9,156.9,0,0,1,18.24,19.66" transform="translate(-398.51 -754.23)"/><path class="cls-1" d="M1106.24,796.71a156.65,156.65,0,0,1,39,35.52" transform="translate(-398.51 -754.23)"/><path class="cls-1" d="M436.37,1547.69a41.33,41.33,0,0,0,8.11,3.91c6.9,2.43,11.17,1.84,15.36,6,4,4,3,7.49,6.24,13.2a28.48,28.48,0,0,0,9.56,9.92" transform="translate(-398.51 -754.23)"/><line class="cls-4" x1="728.53" y1="58.41" x2="186.2" y2="663.95"/><polyline class="cls-4" points="106.46 752.98 106.45 752.99 61.33 803.37"/><polyline class="cls-1" points="54.83 774.04 55.25 773.56 74.31 751.6 86.39 737.68"/><polyline class="cls-1" points="95.08 806.83 109.27 790.49 110.04 789.6 128.19 768.71"/><path class="cls-2" d="M424,1606.15l-1.09.53c-6.14,3-20.74,15.57-22.27,13.86s10.93-17.14,13.56-22.92c.1-.21.19-.43.29-.64l2.38,3.52a11.94,11.94,0,0,0,3.55,3.42Z" transform="translate(-398.51 -754.23)"/><path d="M583.32,1446a58,58,0,0,0-8.72,3.06,57.33,57.33,0,0,0-8,4.21,51.48,51.48,0,0,0-13.26,11.85,57,57,0,0,0-8.59,15.65,106.88,106.88,0,0,0-4.59,17.83,54.28,54.28,0,0,1,1.56-18.78,46.05,46.05,0,0,1,8.42-17.22A43.2,43.2,0,0,1,565,1450.5a44.48,44.48,0,0,1,9-3.34A35.79,35.79,0,0,1,583.32,1446Z" transform="translate(-398.51 -754.23)"/><path class="cls-5" d="M496.15,1467.22c6.8-21.39,24.44-36.19,34.54-43.21" transform="translate(-398.51 -754.23)"/><path d="M886.08,1580.72a133.21,133.21,0,0,0-15.15,8.81A145.35,145.35,0,0,0,857,1600a122.91,122.91,0,0,0-12.33,12.14,101.76,101.76,0,0,0-10.34,13.78,99.81,99.81,0,0,0-7.83,15.3,107,107,0,0,0-5,16.49,126.85,126.85,0,0,0-1.71,34.75,96.5,96.5,0,0,1-1.42-35.31,88,88,0,0,1,1.85-8.76c.69-2.91,1.71-5.73,2.66-8.57a92.12,92.12,0,0,1,18.92-30.26,108,108,0,0,1,13.19-12,115,115,0,0,1,14.86-9.73A94.18,94.18,0,0,1,886.08,1580.72Z" transform="translate(-398.51 -754.23)"/><path d="M869.29,1506.85a99.13,99.13,0,0,1-12.87-4.81,105.56,105.56,0,0,1-12.09-6.59,94.45,94.45,0,0,1-20.82-18A89.19,89.19,0,0,1,809,1454.16a91.51,91.51,0,0,1-6.84-26.57A101.42,101.42,0,0,0,805,1441a92.65,92.65,0,0,0,4.66,12.86,91.35,91.35,0,0,0,14.58,23l2.25,2.57c.77.84,1.59,1.63,2.38,2.45,1.55,1.67,3.29,3.15,5,4.69a102.69,102.69,0,0,0,10.89,8.24A108.2,108.2,0,0,0,869.29,1506.85Z" transform="translate(-398.51 -754.23)"/><path class="cls-1" d="M715.47,1755.44a7.1,7.1,0,0,1,2.13-4.19c3.87-3.38,11.58-.33,13.68.45,9.31,3.44,32.68,7.84,71.89,13.48" transform="translate(-398.51 -754.23)"/><path d="M735.41,1676.86a33.53,33.53,0,0,0-9.67-4.66,29.66,29.66,0,0,0-10.73-1.15,27.8,27.8,0,0,0-10.44,3.09,30.28,30.28,0,0,0-8.64,6.86.16.16,0,0,1-.24,0,.17.17,0,0,1,0-.23,31.07,31.07,0,0,1,8.42-7.52,29.29,29.29,0,0,1,10.74-3.87,31.91,31.91,0,0,1,11.52.55,36.36,36.36,0,0,1,10.75,4.43,1.5,1.5,0,0,1-1.59,2.55l-.07-.05Z" transform="translate(-398.51 -754.23)"/></svg>